<?xml version="1.0" standalone="no"?>
<!DOCTYPE svg PUBLIC "-//W3C//DTD SVG 20010904//EN" "http://www.w3.org/TR/2001/REC-SVG-20010904/DTD/svg10.dtd">
<svg version="1.0" xmlns="http://www.w3.org/2000/svg"
    width="107.000000pt" height="107.000000pt" viewBox="0 0 107.000000 107.000000"
    preserveAspectRatio="xMidYMid meet">
    <metadata> Created by muneeb ahmad 0.0.1, written by Muneeb Ahmad 2023 </metadata>
    <g clip-path="url(#clip0_7_3)"
        transform="translate(0.000000,107.000000) scale(0.100000,-0.100000)"
        fill="#000000" stroke="none">
        <path
            d="M265.782 42.3535C245.611 47.0549 227.655 58.932 210.436 78.9747C195.678 96.2955 174.646 132.917 160.749 165.826C144.268 204.922 124.221 267.153 114.628 309.094C112.783 316.888 110.323 327.776 109.093 333.219L106.756 343.117L106.633 331.982C106.633 325.796 107.371 308.847 108.355 294.248C112.906 225.583 120.777 170.28 132.461 123.019C134.552 114.853 135.905 106.935 135.413 105.327C134.675 102.11 129.386 100.255 126.312 102.11C122.007 104.708 109.462 165.331 103.436 211.974C96.7941 263.194 92.2435 332.23 93.1045 366.871C93.5964 381.099 93.9654 383.573 96.1792 386.666C99.2539 390.873 103.067 391.615 107.125 389.017C110.692 386.666 110.569 387.038 120.654 341.137C137.996 262.204 161.241 191.312 186.33 141.453C208.838 96.9141 230.115 71.4278 254.467 59.6744C262.584 55.839 265.659 55.0967 274.76 54.4781C284.107 53.9832 286.321 54.2307 290.626 56.4576C314.731 68.8296 315.223 115.967 292.101 188.591C259.263 291.649 191.25 394.708 136.028 424.896C128.894 428.731 127.05 432.69 130.493 436.526C131.723 437.887 133.937 439 135.29 439C138.857 439 158.904 425.886 170.957 415.617C229.5 366.005 296.037 244.141 316.084 149.371C326.538 100.378 321.865 64.1283 303.293 49.2819C293.823 41.7349 279.802 39.1368 265.782 42.3535Z"
            fill="#A373FE" />
        <path
            d="M253.784 439.336C251.32 439.336 249.096 438.792 247.112 437.704C245.16 436.584 243.624 435.048 242.504 433.096C241.384 431.144 240.824 428.84 240.824 426.184C240.824 423.528 241.384 421.224 242.504 419.272C243.624 417.32 245.16 415.8 247.112 414.712C249.096 413.624 251.32 413.08 253.784 413.08C255.928 413.08 257.848 413.56 259.544 414.52C261.24 415.448 262.584 416.872 263.576 418.792C264.568 420.712 265.064 423.176 265.064 426.184C265.064 429.16 264.584 431.624 263.624 433.576C262.664 435.496 261.336 436.936 259.64 437.896C257.944 438.856 255.992 439.336 253.784 439.336ZM254.504 434.2C255.944 434.2 257.224 433.88 258.344 433.24C259.496 432.6 260.408 431.672 261.08 430.456C261.784 429.24 262.136 427.816 262.136 426.184C262.136 424.52 261.784 423.096 261.08 421.912C260.408 420.696 259.496 419.768 258.344 419.128C257.224 418.488 255.944 418.168 254.504 418.168C253.064 418.168 251.768 418.488 250.616 419.128C249.496 419.768 248.584 420.696 247.88 421.912C247.208 423.096 246.872 424.52 246.872 426.184C246.872 427.816 247.208 429.24 247.88 430.456C248.584 431.672 249.496 432.6 250.616 433.24C251.768 433.88 253.064 434.2 254.504 434.2ZM262.28 439V432.952L262.52 426.136L262.04 419.32V403.384H267.992V439H262.28ZM287.937 439.336C285.089 439.336 282.593 438.776 280.449 437.656C278.337 436.504 276.689 434.936 275.505 432.952C274.353 430.968 273.777 428.712 273.777 426.184C273.777 423.624 274.337 421.368 275.457 419.416C276.609 417.432 278.177 415.88 280.161 414.76C282.177 413.64 284.465 413.08 287.025 413.08C289.521 413.08 291.745 413.624 293.697 414.712C295.649 415.8 297.185 417.336 298.305 419.32C299.425 421.304 299.985 423.64 299.985 426.328C299.985 426.584 299.969 426.872 299.937 427.192C299.937 427.512 299.921 427.816 299.889 428.104H278.529V424.12H296.721L294.369 425.368C294.401 423.896 294.097 422.6 293.457 421.48C292.817 420.36 291.937 419.48 290.817 418.84C289.729 418.2 288.465 417.88 287.025 417.88C285.553 417.88 284.257 418.2 283.137 418.84C282.049 419.48 281.185 420.376 280.545 421.528C279.937 422.648 279.633 423.976 279.633 425.512V426.472C279.633 428.008 279.985 429.368 280.689 430.552C281.393 431.736 282.385 432.648 283.665 433.288C284.945 433.928 286.417 434.248 288.081 434.248C289.521 434.248 290.817 434.024 291.969 433.576C293.121 433.128 294.145 432.424 295.041 431.464L298.257 435.16C297.105 436.504 295.649 437.544 293.889 438.28C292.161 438.984 290.177 439.336 287.937 439.336ZM304.921 428.152V423.16H318.121V428.152H304.921ZM340.478 439V433.816L340.142 432.712V423.64C340.142 421.88 339.614 420.52 338.558 419.56C337.502 418.568 335.902 418.072 333.758 418.072C332.318 418.072 330.894 418.296 329.486 418.744C328.11 419.192 326.942 419.816 325.982 420.616L323.63 416.248C325.006 415.192 326.638 414.408 328.526 413.896C330.446 413.352 332.43 413.08 334.478 413.08C338.19 413.08 341.054 413.976 343.07 415.768C345.118 417.528 346.142 420.264 346.142 423.976V439H340.478ZM332.414 439.336C330.494 439.336 328.814 439.016 327.374 438.376C325.934 437.704 324.814 436.792 324.014 435.64C323.246 434.456 322.862 433.128 322.862 431.656C322.862 430.216 323.198 428.92 323.87 427.768C324.574 426.616 325.71 425.704 327.278 425.032C328.846 424.36 330.926 424.024 333.518 424.024H340.958V428.008H333.95C331.902 428.008 330.526 428.344 329.822 429.016C329.118 429.656 328.766 430.456 328.766 431.416C328.766 432.504 329.198 433.368 330.062 434.008C330.926 434.648 332.126 434.968 333.662 434.968C335.134 434.968 336.446 434.632 337.598 433.96C338.782 433.288 339.63 432.296 340.142 430.984L341.15 434.584C340.574 436.088 339.534 437.256 338.03 438.088C336.558 438.92 334.686 439.336 332.414 439.336ZM368.386 413.08C370.434 413.08 372.258 413.48 373.858 414.28C375.49 415.08 376.77 416.312 377.698 417.976C378.626 419.608 379.09 421.72 379.09 424.312V439H373.09V425.08C373.09 422.808 372.546 421.112 371.458 419.992C370.402 418.872 368.914 418.312 366.994 418.312C365.586 418.312 364.338 418.6 363.25 419.176C362.162 419.752 361.314 420.616 360.706 421.768C360.13 422.888 359.842 424.312 359.842 426.04V439H353.842V403.384H359.842V420.28L358.546 418.168C359.442 416.536 360.738 415.288 362.434 414.424C364.162 413.528 366.146 413.08 368.386 413.08ZM419.054 413.08C421.102 413.08 422.91 413.48 424.478 414.28C426.078 415.08 427.326 416.312 428.222 417.976C429.118 419.608 429.566 421.72 429.566 424.312V439H423.566V425.08C423.566 422.808 423.07 421.112 422.078 419.992C421.086 418.872 419.662 418.312 417.806 418.312C416.494 418.312 415.326 418.6 414.302 419.176C413.31 419.752 412.526 420.6 411.95 421.72C411.406 422.84 411.134 424.264 411.134 425.992V439H405.134V425.08C405.134 422.808 404.638 421.112 403.646 419.992C402.654 418.872 401.23 418.312 399.374 418.312C398.062 418.312 396.894 418.6 395.87 419.176C394.878 419.752 394.094 420.6 393.518 421.72C392.974 422.84 392.702 424.264 392.702 425.992V439H386.702V413.368H392.414V420.184L391.406 418.168C392.27 416.504 393.518 415.24 395.15 414.376C396.814 413.512 398.702 413.08 400.814 413.08C403.214 413.08 405.294 413.672 407.054 414.856C408.846 416.04 410.03 417.832 410.606 420.232L408.254 419.416C409.086 417.496 410.462 415.96 412.382 414.808C414.302 413.656 416.526 413.08 419.054 413.08ZM453.025 439V433.816L452.689 432.712V423.64C452.689 421.88 452.161 420.52 451.105 419.56C450.049 418.568 448.449 418.072 446.305 418.072C444.865 418.072 443.441 418.296 442.033 418.744C440.657 419.192 439.489 419.816 438.529 420.616L436.177 416.248C437.553 415.192 439.185 414.408 441.073 413.896C442.993 413.352 444.977 413.08 447.025 413.08C450.737 413.08 453.601 413.976 455.617 415.768C457.665 417.528 458.689 420.264 458.689 423.976V439H453.025ZM444.961 439.336C443.041 439.336 441.361 439.016 439.921 438.376C438.481 437.704 437.361 436.792 436.561 435.64C435.793 434.456 435.409 433.128 435.409 431.656C435.409 430.216 435.745 428.92 436.417 427.768C437.121 426.616 438.257 425.704 439.825 425.032C441.393 424.36 443.473 424.024 446.065 424.024H453.505V428.008H446.497C444.449 428.008 443.073 428.344 442.369 429.016C441.665 429.656 441.313 430.456 441.313 431.416C441.313 432.504 441.745 433.368 442.609 434.008C443.473 434.648 444.673 434.968 446.209 434.968C447.681 434.968 448.993 434.632 450.145 433.96C451.329 433.288 452.177 432.296 452.689 430.984L453.697 434.584C453.121 436.088 452.081 437.256 450.577 438.088C449.105 438.92 447.233 439.336 444.961 439.336Z"
            fill="#A373FE" />
    </g>
    </defs>
</svg>