<svg width="161" height="101" viewBox="0 0 161 101" fill="none" xmlns="http://www.w3.org/2000/svg">
    <path
        d="M43.8466 0.343475C38.728 1.53653 34.1712 4.55058 29.8017 9.63678C26.0564 14.0323 20.7193 23.3256 17.1925 31.677C13.0102 41.5982 7.92286 57.3905 5.48841 68.0339C5.02025 70.0119 4.39603 72.7747 4.08392 74.1562L3.49092 76.6679L3.45971 73.8422C3.45971 72.2724 3.64697 67.9711 3.89666 64.2663C5.05146 46.8414 7.04896 32.8072 10.014 20.8139C10.5446 18.7417 10.8879 16.7323 10.7631 16.3242C10.5758 15.5079 9.23372 15.0369 8.45345 15.5079C7.36107 16.1672 4.17756 31.5514 2.64822 43.3878C0.962835 56.3859 -0.191968 73.905 0.0265087 82.696C0.151352 86.3065 0.244985 86.9345 0.806781 87.7194C1.58705 88.7868 2.55459 88.9752 3.58455 88.3159C4.48967 87.7194 4.45845 87.8136 7.01775 76.1655C11.4185 56.1347 17.3173 38.1446 23.6844 25.4919C29.396 14.1892 34.7954 7.7216 40.9752 4.73896C43.0351 3.76567 43.8154 3.57729 46.125 3.42031C48.497 3.29473 49.0588 3.35752 50.1512 3.92265C56.2685 7.06228 56.3934 19.0243 50.5257 37.4539C42.1924 63.607 24.9328 89.7601 10.9191 97.4208C9.10888 98.3941 8.64071 99.3988 9.51462 100.372C9.82673 100.717 10.3885 101 10.7318 101C11.637 101 16.7243 97.672 19.783 95.0661C34.6394 82.4762 51.5245 51.5508 56.6119 27.5013C59.2648 15.0683 58.0788 5.86922 53.3659 2.10167C50.9627 0.186494 47.4046 -0.472828 43.8466 0.343475Z"
        fill="#A373FE" />
    <path
        d="M56.392 95.168C55.16 95.168 54.048 94.896 53.056 94.352C52.08 93.792 51.312 93.024 50.752 92.048C50.192 91.072 49.912 89.92 49.912 88.592C49.912 87.264 50.192 86.112 50.752 85.136C51.312 84.16 52.08 83.4 53.056 82.856C54.048 82.312 55.16 82.04 56.392 82.04C57.464 82.04 58.424 82.28 59.272 82.76C60.12 83.224 60.792 83.936 61.288 84.896C61.784 85.856 62.032 87.088 62.032 88.592C62.032 90.08 61.792 91.312 61.312 92.288C60.832 93.248 60.168 93.968 59.32 94.448C58.472 94.928 57.496 95.168 56.392 95.168ZM56.752 92.6C57.472 92.6 58.112 92.44 58.672 92.12C59.248 91.8 59.704 91.336 60.04 90.728C60.392 90.12 60.568 89.408 60.568 88.592C60.568 87.76 60.392 87.048 60.04 86.456C59.704 85.848 59.248 85.384 58.672 85.064C58.112 84.744 57.472 84.584 56.752 84.584C56.032 84.584 55.384 84.744 54.808 85.064C54.248 85.384 53.792 85.848 53.44 86.456C53.104 87.048 52.936 87.76 52.936 88.592C52.936 89.408 53.104 90.12 53.44 90.728C53.792 91.336 54.248 91.8 54.808 92.12C55.384 92.44 56.032 92.6 56.752 92.6ZM60.64 95V91.976L60.76 88.568L60.52 85.16V77.192H63.496V95H60.64ZM73.4686 95.168C72.0446 95.168 70.7966 94.888 69.7246 94.328C68.6686 93.752 67.8446 92.968 67.2526 91.976C66.6766 90.984 66.3886 89.856 66.3886 88.592C66.3886 87.312 66.6686 86.184 67.2286 85.208C67.8046 84.216 68.5886 83.44 69.5806 82.88C70.5886 82.32 71.7326 82.04 73.0126 82.04C74.2606 82.04 75.3726 82.312 76.3486 82.856C77.3246 83.4 78.0926 84.168 78.6526 85.16C79.2126 86.152 79.4926 87.32 79.4926 88.664C79.4926 88.792 79.4846 88.936 79.4686 89.096C79.4686 89.256 79.4606 89.408 79.4446 89.552H68.7646V87.56H77.8606L76.6846 88.184C76.7006 87.448 76.5486 86.8 76.2286 86.24C75.9086 85.68 75.4686 85.24 74.9086 84.92C74.3646 84.6 73.7326 84.44 73.0126 84.44C72.2766 84.44 71.6286 84.6 71.0686 84.92C70.5246 85.24 70.0926 85.688 69.7726 86.264C69.4686 86.824 69.3166 87.488 69.3166 88.256V88.736C69.3166 89.504 69.4926 90.184 69.8446 90.776C70.1966 91.368 70.6926 91.824 71.3326 92.144C71.9726 92.464 72.7086 92.624 73.5406 92.624C74.2606 92.624 74.9086 92.512 75.4846 92.288C76.0606 92.064 76.5726 91.712 77.0206 91.232L78.6286 93.08C78.0526 93.752 77.3246 94.272 76.4446 94.64C75.5806 94.992 74.5886 95.168 73.4686 95.168ZM81.9606 89.576V87.08H88.5606V89.576H81.9606ZM99.739 95V92.408L99.571 91.856V87.32C99.571 86.44 99.307 85.76 98.779 85.28C98.251 84.784 97.451 84.536 96.379 84.536C95.659 84.536 94.947 84.648 94.243 84.872C93.555 85.096 92.971 85.408 92.491 85.808L91.315 83.624C92.003 83.096 92.819 82.704 93.763 82.448C94.723 82.176 95.715 82.04 96.739 82.04C98.595 82.04 100.027 82.488 101.035 83.384C102.059 84.264 102.571 85.632 102.571 87.488V95H99.739ZM95.707 95.168C94.747 95.168 93.907 95.008 93.187 94.688C92.467 94.352 91.907 93.896 91.507 93.32C91.123 92.728 90.931 92.064 90.931 91.328C90.931 90.608 91.099 89.96 91.435 89.384C91.787 88.808 92.355 88.352 93.139 88.016C93.923 87.68 94.963 87.512 96.259 87.512H99.979V89.504H96.475C95.451 89.504 94.763 89.672 94.411 90.008C94.059 90.328 93.883 90.728 93.883 91.208C93.883 91.752 94.099 92.184 94.531 92.504C94.963 92.824 95.563 92.984 96.331 92.984C97.067 92.984 97.723 92.816 98.299 92.48C98.891 92.144 99.315 91.648 99.571 90.992L100.075 92.792C99.787 93.544 99.267 94.128 98.515 94.544C97.779 94.96 96.843 95.168 95.707 95.168ZM113.693 82.04C114.717 82.04 115.629 82.24 116.429 82.64C117.245 83.04 117.885 83.656 118.349 84.488C118.813 85.304 119.045 86.36 119.045 87.656V95H116.045V88.04C116.045 86.904 115.773 86.056 115.229 85.496C114.701 84.936 113.957 84.656 112.997 84.656C112.293 84.656 111.669 84.8 111.125 85.088C110.581 85.376 110.157 85.808 109.853 86.384C109.565 86.944 109.421 87.656 109.421 88.52V95H106.421V77.192H109.421V85.64L108.773 84.584C109.221 83.768 109.869 83.144 110.717 82.712C111.581 82.264 112.573 82.04 113.693 82.04ZM139.027 82.04C140.051 82.04 140.955 82.24 141.739 82.64C142.539 83.04 143.163 83.656 143.611 84.488C144.059 85.304 144.283 86.36 144.283 87.656V95H141.283V88.04C141.283 86.904 141.035 86.056 140.539 85.496C140.043 84.936 139.331 84.656 138.403 84.656C137.747 84.656 137.163 84.8 136.651 85.088C136.155 85.376 135.763 85.8 135.475 86.36C135.203 86.92 135.067 87.632 135.067 88.496V95H132.067V88.04C132.067 86.904 131.819 86.056 131.323 85.496C130.827 84.936 130.115 84.656 129.187 84.656C128.531 84.656 127.947 84.8 127.435 85.088C126.939 85.376 126.547 85.8 126.259 86.36C125.987 86.92 125.851 87.632 125.851 88.496V95H122.851V82.184H125.707V85.592L125.203 84.584C125.635 83.752 126.259 83.12 127.075 82.688C127.907 82.256 128.851 82.04 129.907 82.04C131.107 82.04 132.147 82.336 133.027 82.928C133.923 83.52 134.515 84.416 134.803 85.616L133.627 85.208C134.043 84.248 134.731 83.48 135.691 82.904C136.651 82.328 137.763 82.04 139.027 82.04ZM156.012 95V92.408L155.844 91.856V87.32C155.844 86.44 155.58 85.76 155.052 85.28C154.524 84.784 153.724 84.536 152.652 84.536C151.932 84.536 151.22 84.648 150.516 84.872C149.828 85.096 149.244 85.408 148.764 85.808L147.588 83.624C148.276 83.096 149.092 82.704 150.036 82.448C150.996 82.176 151.988 82.04 153.012 82.04C154.868 82.04 156.3 82.488 157.308 83.384C158.332 84.264 158.844 85.632 158.844 87.488V95H156.012ZM151.98 95.168C151.02 95.168 150.18 95.008 149.46 94.688C148.74 94.352 148.18 93.896 147.78 93.32C147.396 92.728 147.204 92.064 147.204 91.328C147.204 90.608 147.372 89.96 147.708 89.384C148.06 88.808 148.628 88.352 149.412 88.016C150.196 87.68 151.236 87.512 152.532 87.512H156.252V89.504H152.748C151.724 89.504 151.036 89.672 150.684 90.008C150.332 90.328 150.156 90.728 150.156 91.208C150.156 91.752 150.372 92.184 150.804 92.504C151.236 92.824 151.836 92.984 152.604 92.984C153.34 92.984 153.996 92.816 154.572 92.48C155.164 92.144 155.588 91.648 155.844 90.992L156.348 92.792C156.06 93.544 155.54 94.128 154.788 94.544C154.052 94.96 153.116 95.168 151.98 95.168Z"
        fill="#A373FE" />
</svg>